<?xml version="1.0" encoding="UTF-8"?>
<!-- Generated by SVGo -->
<svg width="262.414mm" height="98.334mm" viewBox="0.000 0.000 262.414 98.334" xmlns="http://www.w3.org/2000/svg" xmlns:xlink="http://www.w3.org/1999/xlink">
<!-- <polygon points="257.414,93.334 5.001,93.334 5.001,5.001 257.414,5.001" style="fill:none;stroke-width:0.050000mm;stroke:black"/> -->
<polygon points="154.793,75.292 155.447,79.946 153.937,80.158 153.487,76.959 146.803,77.899 147.252,81.097 146.435,81.212 146.825,83.985 147.642,83.870 148.515,90.079 150.223,89.839 150.390,91.027 153.658,90.568 153.491,89.380 155.199,89.140 154.577,84.713 156.087,84.501 156.741,89.155 170.605,87.207 169.951,82.552 171.461,82.340 172.083,86.767 173.791,86.527 173.958,87.715 177.226,87.256 177.059,86.068 178.767,85.827 177.895,79.618 178.712,79.504 178.322,76.731 177.505,76.846 177.056,73.647 170.371,74.587 170.821,77.785 169.310,77.997 168.656,73.343" style="fill:none;stroke-width:0.050000mm;stroke:black"/>
<polygon points="93.103,77.997 91.593,77.785 92.042,74.587 85.358,73.647 84.908,76.846 84.091,76.731 83.702,79.504 84.519,79.618 83.646,85.827 85.354,86.068 85.187,87.256 88.455,87.715 88.622,86.527 90.330,86.767 90.953,82.340 92.463,82.552 91.809,87.207 105.672,89.155 106.326,84.501 107.837,84.713 107.215,89.140 108.923,89.380 108.756,90.568 112.024,91.027 112.191,89.839 113.899,90.079 114.771,83.870 115.588,83.985 115.978,81.212 115.161,81.097 115.611,77.899 108.926,76.959 108.477,80.158 106.967,79.946 107.621,75.292 93.757,73.343" style="fill:none;stroke-width:0.050000mm;stroke:black"/>
<polygon points="183.090,71.315 185.038,85.178 198.902,83.230 196.953,69.366" style="fill:none;stroke-width:0.050000mm;stroke:black"/>
<polygon points="63.512,83.230 77.375,85.178 79.324,71.315 65.460,69.366" style="fill:none;stroke-width:0.050000mm;stroke:black"/>
<polygon points="240.888,64.676 240.888,78.676 254.888,78.676 254.888,64.676" style="fill:none;stroke-width:0.050000mm;stroke:black"/>
<polygon points="7.526,64.676 7.526,78.676 21.526,78.676 21.526,64.676" style="fill:none;stroke-width:0.050000mm;stroke:black"/>
<polygon points="142.709,57.753 144.658,71.616 158.521,69.668 156.573,55.804" style="fill:none;stroke-width:0.050000mm;stroke:black"/>
<polygon points="103.892,69.668 117.756,71.616 119.704,57.753 105.841,55.804" style="fill:none;stroke-width:0.050000mm;stroke:black"/>
<polygon points="161.574,55.101 163.522,68.965 177.386,67.017 175.438,53.153" style="fill:none;stroke-width:0.050000mm;stroke:black"/>
<polygon points="85.028,67.017 98.891,68.965 100.840,55.101 86.976,53.153" style="fill:none;stroke-width:0.050000mm;stroke:black"/>
<polygon points="180.438,52.450 182.387,66.314 196.251,64.365 194.302,50.502" style="fill:none;stroke-width:0.050000mm;stroke:black"/>
<polygon points="66.163,64.365 80.027,66.314 81.975,52.450 68.111,50.502" style="fill:none;stroke-width:0.050000mm;stroke:black"/>
<polygon points="199.303,49.799 201.251,63.663 215.115,61.714 213.167,47.850" style="fill:none;stroke-width:0.050000mm;stroke:black"/>
<polygon points="47.298,61.714 61.162,63.663 63.111,49.799 49.247,47.850" style="fill:none;stroke-width:0.050000mm;stroke:black"/>
<polygon points="219.950,46.679 220.926,60.645 234.892,59.669 233.916,45.703" style="fill:none;stroke-width:0.050000mm;stroke:black"/>
<polygon points="27.521,59.669 41.487,60.645 42.464,46.679 28.498,45.703" style="fill:none;stroke-width:0.050000mm;stroke:black"/>
<polygon points="240.888,45.626 240.888,59.626 254.888,59.626 254.888,45.626" style="fill:none;stroke-width:0.050000mm;stroke:black"/>
<polygon points="7.526,45.626 7.526,59.626 21.526,59.626 21.526,45.626" style="fill:none;stroke-width:0.050000mm;stroke:black"/>
<polygon points="140.058,38.888 142.006,52.752 155.870,50.803 153.922,36.940" style="fill:none;stroke-width:0.050000mm;stroke:black"/>
<polygon points="106.543,50.803 120.407,52.752 122.356,38.888 108.492,36.940" style="fill:none;stroke-width:0.050000mm;stroke:black"/>
<polygon points="158.923,36.237 160.871,50.100 174.735,48.152 172.786,34.288" style="fill:none;stroke-width:0.050000mm;stroke:black"/>
<polygon points="87.679,48.152 101.543,50.100 103.491,36.237 89.627,34.288" style="fill:none;stroke-width:0.050000mm;stroke:black"/>
<polygon points="177.787,33.585 179.736,47.449 193.599,45.501 191.651,31.637" style="fill:none;stroke-width:0.050000mm;stroke:black"/>
<polygon points="68.814,45.501 82.678,47.449 84.626,33.585 70.763,31.637" style="fill:none;stroke-width:0.050000mm;stroke:black"/>
<polygon points="196.652,30.934 198.600,44.798 212.464,42.850 210.515,28.986" style="fill:none;stroke-width:0.050000mm;stroke:black"/>
<polygon points="49.950,42.850 63.813,44.798 65.762,30.934 51.898,28.986" style="fill:none;stroke-width:0.050000mm;stroke:black"/>
<polygon points="218.621,27.676 219.597,41.642 233.563,40.665 232.587,26.699" style="fill:none;stroke-width:0.050000mm;stroke:black"/>
<polygon points="28.850,40.665 42.816,41.642 43.793,27.676 29.827,26.699" style="fill:none;stroke-width:0.050000mm;stroke:black"/>
<polygon points="240.888,26.576 240.888,40.576 254.888,40.576 254.888,26.576" style="fill:none;stroke-width:0.050000mm;stroke:black"/>
<polygon points="7.526,26.576 7.526,40.576 21.526,40.576 21.526,26.576" style="fill:none;stroke-width:0.050000mm;stroke:black"/>
<polygon points="137.407,20.023 139.355,33.887 153.219,31.939 151.270,18.075" style="fill:none;stroke-width:0.050000mm;stroke:black"/>
<polygon points="109.195,31.939 123.058,33.887 125.007,20.023 111.143,18.075" style="fill:none;stroke-width:0.050000mm;stroke:black"/>
<polygon points="156.271,17.372 158.220,31.236 172.083,29.287 170.135,15.424" style="fill:none;stroke-width:0.050000mm;stroke:black"/>
<polygon points="90.330,29.287 104.194,31.236 106.142,17.372 92.278,15.424" style="fill:none;stroke-width:0.050000mm;stroke:black"/>
<polygon points="175.136,14.721 177.084,28.585 190.948,26.636 189.000,12.772" style="fill:none;stroke-width:0.050000mm;stroke:black"/>
<polygon points="71.465,26.636 85.329,28.585 87.278,14.721 73.414,12.772" style="fill:none;stroke-width:0.050000mm;stroke:black"/>
<polygon points="194.000,12.070 195.949,25.933 209.813,23.985 207.864,10.121" style="fill:none;stroke-width:0.050000mm;stroke:black"/>
<polygon points="52.601,23.985 66.465,25.933 68.413,12.070 54.549,10.121" style="fill:none;stroke-width:0.050000mm;stroke:black"/>
<polygon points="217.292,8.672 218.268,22.638 232.234,21.661 231.258,7.695" style="fill:none;stroke-width:0.050000mm;stroke:black"/>
<polygon points="30.179,21.661 44.145,22.638 45.122,8.672 31.156,7.695" style="fill:none;stroke-width:0.050000mm;stroke:black"/>
<polygon points="240.888,7.526 240.888,21.526 254.888,21.526 254.888,7.526" style="fill:none;stroke-width:0.050000mm;stroke:black"/>
<polygon points="7.526,7.526 7.526,21.526 21.526,21.526 21.526,7.526" style="fill:none;stroke-width:0.050000mm;stroke:black"/>
</svg>